<?xml version="1.0" encoding="utf-8"?>
<!-- Generator: Adobe Illustrator 23.0.0, SVG Export Plug-In . SVG Version: 6.00 Build 0)  -->
<svg version="1.1" id="레이어_1" xmlns="http://www.w3.org/2000/svg" xmlns:xlink="http://www.w3.org/1999/xlink" x="0px"
	 y="0px" viewBox="0 0 400 500" style="enable-background:new 0 0 400 500;" xml:space="preserve">
<style type="text/css">
	.st0{fill:#F8C5AF;}
	.st1{fill:#F1A387;}
	.st2{fill:#1E2C5A;}
	.st3{fill:none;stroke:#1E2C5A;stroke-width:0.9022;stroke-linecap:round;stroke-linejoin:round;stroke-miterlimit:10;}
	.st4{fill:none;stroke:#1E2C5A;stroke-linecap:round;stroke-linejoin:round;stroke-miterlimit:10;}
	.st5{fill:none;stroke:#1E2C5A;stroke-width:1.0193;stroke-linecap:round;stroke-linejoin:round;stroke-miterlimit:10;}
	.st6{fill:none;stroke:#1E2C5A;stroke-width:0.829;stroke-linecap:round;stroke-linejoin:round;stroke-miterlimit:10;}
	.st7{fill:none;stroke:#1E2C5A;stroke-width:1.0475;stroke-linecap:round;stroke-linejoin:round;stroke-miterlimit:10;}
</style>
<path class="st0" d="M230.5,138.8l-29.7-1.9c0,0-80,21.4-64.8,71.5s14.1,49.4,39.1,85.1c25.1,35.7,53.3,14.7,64.2,8.2
	c2.3-1.4,5.2-3.7,8.5-6.8c0.6-0.7,1.2-1.3,2-1.9c12.3-12,28.3-32.8,33.1-49.8C289.5,220.6,296,137.2,230.5,138.8z"/>
<path class="st1" d="M282.2,222.3c0,0,9-5.7,12,1.8s-2,21-8.6,24.8c-6.6,3.8-17,1.8-17,1.8L282.2,222.3z"/>
<path class="st1" d="M248.9,293.6c0.7-0.6,1.5-1.2,2.3-1.6c0.1,0,0.2-0.1,0.2-0.1c0.6-0.5,1.2-1,1.9-1.5c1.2-1.3,2.4-2.5,3.8-3.4
	c10.1-15.8,21.1-33.7,21.1-33.7l-5.5-47.3l-29.3,8.7C243.6,214.7,272.8,245.5,248.9,293.6z"/>
<ellipse class="st2" cx="219.4" cy="228.4" rx="5.2" ry="8.6"/>
<ellipse class="st2" cx="177.2" cy="234" rx="5.2" ry="8.6"/>
<path class="st2" d="M198,235.8"/>
<path class="st2" d="M195.6,239.6"/>
<path class="st0" d="M238.1,267.3"/>
<path class="st3" d="M192.8,277c0,0,12.7,13.5,30.5,0.2c1.7-1.2,3.4-2.7,5.1-4.5"/>
<path class="st2" d="M196.8,134.1c0,0-76.6-8.5-63,110.5c0,0,0,0.2,0,0.6c0,0.1,0.1,0.3,0.1,0.4c5.4,19.9,6.1,40.1,6.8,60.3
	c0.6,4.3,1.3,8.6,1.9,13c1.1-0.1,2.2-0.3,3.3-0.5c25.2-4.6,38.9-13.5,38.9-13.5l-30-41.8c0,0-17.6-36.5,6.4-62.2
	s35.5-16.4,35.5-16.4s44.9-22.1,81.8,47.3l7.6-10.7C286.2,221.1,298.5,113.2,196.8,134.1z"/>
<path class="st2" d="M196.8,184.5c0,0,80.8,67.1,84.4,42.3c3.5-24.8-75-59.4-75-59.4L196.8,184.5z"/>
<polyline class="st2" points="268.6,227.1 276.4,239.6 280.8,225.3 "/>
<path class="st3" d="M287.8,228.4c0,0,3.3,8-4.8,14.2"/>
<path class="st3" d="M283,235.5c0,0,1.2-3.7,5.5-2.4"/>
<path class="st2" d="M303.6,250.3"/>
<path class="st2" d="M279.2,250.9"/>
<path class="st2" d="M134,239.6c0,0,11.9,102.7,0,148.1s14.6,33.2,23.4,29.4s9.2,3.3,28.1,0.6c19-2.8-1.7-111.2-1.7-111.2
	s-14.1-1.4-28.8-19.9"/>
<path class="st0" d="M151.5,248c0,0,9.9,68.4,60.4,65"/>
<path class="st2" d="M290.2,406.5c-15.1-49.9-4.6-157.6-4.6-157.6l-6.4,1.9l-22,36.2c-8.7,65.7-12.7,101.1-14.2,119.5
	c0.2,0.4,0.4,0.9,0.5,1.3c0.4,0.4,0.8,0.8,1.2,1.2c1.7,1.3,3.6,2.3,5.3,3.5c1,0.1,1.9,0.3,2.8,0.6c3.3-0.2,8.6,0.1,17.5,1.5
	C295.7,418.7,290.2,406.5,290.2,406.5z"/>
<line class="st4" x1="169" y1="215.1" x2="182.4" y2="217.4"/>
<line class="st5" x1="210.4" y1="215.2" x2="220.3" y2="212.1"/>
<path class="st6" d="M206.4,286.6c0,0,7.2,2.8,12-3"/>
<path class="st7" d="M200.5,243.5c-1.5,3.3-2.8,6.8-3.5,10.4c-1.2,5.7-0.5,9,5.7,10.2"/>
</svg>
