<?xml version="1.0" encoding="utf-8"?>
<!-- Generator: Adobe Illustrator 23.0.0, SVG Export Plug-In . SVG Version: 6.00 Build 0)  -->
<svg version="1.1" id="레이어_1" xmlns="http://www.w3.org/2000/svg" xmlns:xlink="http://www.w3.org/1999/xlink" x="0px"
	 y="0px" viewBox="0 0 150 180" style="enable-background:new 0 0 150 180;" xml:space="preserve">
<style type="text/css">
	.st0{fill:#F1A387;}
	.st1{fill:#F8C5AF;}
	.st2{fill:#1E2C5A;}
	.st3{fill:none;stroke:#1E2C5A;stroke-width:0.5921;stroke-linecap:round;stroke-linejoin:round;stroke-miterlimit:10;}
	.st4{fill:none;stroke:#1E2C5A;stroke-width:0.7748;stroke-linecap:round;stroke-linejoin:round;stroke-miterlimit:10;}
	.st5{fill:none;stroke:#1E2C5A;stroke-width:0.3874;stroke-linecap:round;stroke-linejoin:round;stroke-miterlimit:10;}
	.st6{fill:none;stroke:#1E2C5A;stroke-width:0.7833;stroke-linecap:round;stroke-linejoin:round;stroke-miterlimit:10;}
</style>
<path class="st0" d="M54.7,100.1c0,0-1.7,1.1,1.8,5c3.5,3.9,0-5,0-5H54.7z"/>
<path class="st1" d="M98.3,119.4c0.2-0.3,0.5-0.6,0.8-0.9c0.1-0.1,0.7-1,0.2-0.2c0.3-0.4,0.6-0.8,1-1.1c0.1-0.1,0.2-0.2,0.2-0.3
	c0.3-0.4,0.7-0.7,1.1-1c3.1-4,5.9-8.6,7.1-12.7c2.5-8.8,5-41.1-20.3-40.5l-11.5-0.7c0,0-31,8.3-25.1,27.7s5.4,19.2,15.2,33
	c9.7,13.8,20.6,5.7,24.9,3.2c1-0.6,2.4-1.7,3.9-3.2c0.5-0.8,1.2-1.5,1.9-2.1C97.8,120.1,98.1,119.8,98.3,119.4z"/>
<path class="st0" d="M108.5,95c0,0,3.5-2.2,4.7,0.7c1.2,2.9-0.8,8.1-3.3,9.6c-2.6,1.5-6.6,0.7-6.6,0.7L108.5,95z"/>
<path class="st0" d="M98.3,119.4c0.2-0.3,0.5-0.6,0.8-0.9c0.1-0.1,0.7-1,0.2-0.2c0.3-0.4,0.6-0.8,1-1.1c0.1-0.1,0.2-0.2,0.2-0.3
	c0.2-0.3,0.5-0.5,0.7-0.7c3-4.8,5.7-9.1,5.7-9.1l-2.1-18.3l-11.3,3.4c0,0,11.4,12,2,30.7c0.1-0.1,0.1-0.1,0.2-0.2
	c0.5-0.8,1.2-1.5,1.9-2.1C97.8,120.1,98.1,119.8,98.3,119.4z"/>
<ellipse class="st2" cx="84.2" cy="97.4" rx="2" ry="3.3"/>
<ellipse class="st2" cx="67.8" cy="99.5" rx="2" ry="3.3"/>
<path class="st2" d="M75.9,100.2"/>
<path class="st2" d="M74.9,101.7"/>
<path class="st1" d="M91.4,112.5"/>
<path class="st3" d="M72.6,117c0,0,7.7,2.5,13.6-2.8"/>
<path class="st2" d="M107.3,106.1"/>
<line class="st4" x1="81.7" y1="91.9" x2="89.1" y2="91.7"/>
<line class="st4" x1="63.9" y1="93.6" x2="71.2" y2="92.8"/>
<path class="st1" d="M56.2,103.8c0,0,6,28.9,26.7,26.2"/>
<path class="st5" d="M109.8,97.7c0,0,1.8,2.3-1.5,5.5"/>
<path class="st5" d="M108.4,100.4c0,0,0.6-1.6,2-1.1"/>
<path class="st4" d="M76.5,102.3c0,0-4.5,7.3,1.1,8.1"/>
<path class="st2" d="M76.3,60.9c0,0-34.2-4.5-24.2,33.1l3.7,8.3c0,0-2.2-9.1-1.9-10.9c0.3-1.8,20.3-17,20.3-17l32.3,24.8l3.8-4.9
	C110.2,94.3,118.9,53.4,76.3,60.9z"/>
<path class="st2" d="M106,98.9C79.9,88,74.5,73.3,74.5,73.3H59.3c0,0-2.1,2.6-1.7,10.5s24.3,4.8,17.4,3.3c-6.9-1.5,0-13.8,0-13.8"/>
<polygon class="st2" points="104.1,97.4 106,101.7 106.6,97.7 "/>
<ellipse transform="matrix(7.430795e-02 -0.9972 0.9972 7.430795e-02 -35.8675 159.1892)" class="st3" cx="67.8" cy="98.9" rx="8.9" ry="7.6"/>
<ellipse transform="matrix(7.430795e-02 -0.9972 0.9972 7.430795e-02 -19.4564 174.3523)" class="st3" cx="84.2" cy="97.7" rx="8.9" ry="7.6"/>
<path class="st4" d="M91.8,97.7"/>
<line class="st6" x1="60.2" y1="98.3" x2="54.7" y2="99.2"/>
<line class="st6" x1="91.8" y1="97.7" x2="106.8" y2="97.7"/>
</svg>
