<?xml version="1.0" encoding="utf-8"?>
<!-- Generator: Adobe Illustrator 23.0.0, SVG Export Plug-In . SVG Version: 6.00 Build 0)  -->
<svg version="1.1" id="레이어_1" xmlns="http://www.w3.org/2000/svg" xmlns:xlink="http://www.w3.org/1999/xlink" x="0px"
	 y="0px" viewBox="0 0 400 500" style="enable-background:new 0 0 400 500;" xml:space="preserve">
<style type="text/css">
	.st0{fill:#F8C5AF;}
	.st1{fill:#F1A387;}
	.st2{fill:#1E2C5A;}
	.st3{fill:none;stroke:#1E2C5A;stroke-width:0.9022;stroke-linecap:round;stroke-linejoin:round;stroke-miterlimit:10;}
	.st4{fill:none;stroke:#1E2C5A;stroke-linecap:round;stroke-linejoin:round;stroke-miterlimit:10;}
</style>
<path class="st0" d="M179.6,81.9c0,0-80,21.4-64.8,71.5s14.1,49.4,39.1,85.1s53.3,14.7,64.2,8.2c11-6.5,37.1-35.8,43.6-58.4
	c6.5-22.7,13-106.1-52.5-104.5"/>
<path class="st1" d="M261.2,167.3c0,0,9-5.7,12,1.8s-2,21-8.6,24.8c-6.6,3.8-17,1.8-17,1.8L261.2,167.3z"/>
<path class="st1" d="M222.6,159.7c0,0,30.2,31.8,4.2,81.3s30.6-42.7,30.6-42.7l-5.5-47.3L222.6,159.7z"/>
<ellipse class="st2" cx="198.4" cy="173.4" rx="5.2" ry="8.6"/>
<ellipse class="st2" cx="156.2" cy="179" rx="5.2" ry="8.6"/>
<path class="st2" d="M177,180.8"/>
<path class="st2" d="M174.6,184.6"/>
<polyline class="st3" points="174.6,184.6 174.6,206.1 183.8,206.1 "/>
<path class="st0" d="M217.1,212.3"/>
<path class="st3" d="M172.6,226.4c0,0,18.8,11.8,33.4-13.1"/>
<path class="st2" d="M258.4,195.3c-0.1,0.1-0.1,0.2-0.2,0.4c-5.7,13,26.7,58.1,1.4,61.5c-25.5,3.4-43.7-2.3-43.7-2.3
	s-5.8,0.6-11.7-10c0,0,18,0.6,24.4-5.5"/>
<path class="st2" d="M175.8,79.1c0,0-76.6-8.5-63,110.5c0,0,2.4,43.8-20.9,62.4c0,0,7.8,16.1,33,11.5c25.2-4.6,38.9-13.5,38.9-13.5
	l-30-41.8c0,0-17.6-36.5,6.4-62.2s35.5-16.4,35.5-16.4s44.9-22.1,81.8,47.3l7.6-10.7C265.2,166.1,277.5,58.2,175.8,79.1z"/>
<path class="st2" d="M175.8,129.5c0,0,80.8,67.1,84.4,42.3c3.5-24.8-75-59.4-75-59.4L175.8,129.5z"/>
<path class="st0" d="M132.7,204.2c5,13.8,2.8,47.7,51.2,54.5"/>
<polyline class="st2" points="247.6,172.1 255.4,184.6 259.8,170.3 "/>
<path class="st4" d="M189.3,152.9c0,0,8.1-4.7,13,0.9"/>
<path class="st4" d="M144.2,156.8c0,0,6.6-6.8,15.5-3"/>
<path class="st3" d="M266.8,173.4c0,0,3.3,8-4.8,14.2"/>
<path class="st3" d="M262,180.5c0,0,1.2-3.7,5.5-2.4"/>
<path class="st2" d="M297.9,186.2"/>
<path class="st2" d="M239.6,223.8c0,0-12.3,23.8-30.9,21.9c-18.5-1.8,31,1.2,29.5,2.3S239.6,223.8,239.6,223.8z"/>
<path class="st2" d="M214.2,254.5c0,0,10.7,3.2,12.6,2.2c1.8-1-11.6-5.2-11.6-5.2L214.2,254.5z"/>
<path class="st2" d="M282.6,195.3"/>
<path class="st2" d="M258.6,195.3h1.2l-2.1,2.5l-1.4,6.5c0,0,16.6,45.2,9.3,25s-2.3-34.7-2.3-34.7"/>
<path class="st2" d="M258.2,195.9"/>
<g>
	<g>
		<path class="st2" d="M258.3,195.9c0.1,0.6-0.1,1.2-0.5,1.6c-0.4,0.5,0.5,1,0.9,0.5c0.5-0.7,0.7-1.5,0.6-2.4
			C259.2,195,258.2,195.2,258.3,195.9L258.3,195.9z"/>
	</g>
</g>
<g>
	<g>
		<path class="st2" d="M258.4,195.6c-0.4,0.3-0.4,0.7-0.7,1c-0.1,0.1-0.3,0.3-0.4,0.4c-0.1,0.2-0.2,0.5-0.3,0.7
			c-0.2,0.6,0.6,1.1,0.9,0.5c0.1-0.3,0.2-0.7,0.5-0.9c0.1-0.1,0.2-0.3,0.3-0.4c0.1-0.1,0.1-0.3,0.2-0.4
			C259.4,196.1,258.9,195.2,258.4,195.6L258.4,195.6z"/>
	</g>
</g>
<g>
	<g>
		<path class="st2" d="M259.1,196.2c0.4,0,0.7,0,1.1,0c0.6,0,0.6-1,0-1c-0.4,0-0.7,0-1.1,0C258.5,195.3,258.5,196.3,259.1,196.2
			L259.1,196.2z"/>
	</g>
</g>
</svg>
