<?xml version="1.0" encoding="utf-8"?>
<!-- Generator: Adobe Illustrator 23.0.0, SVG Export Plug-In . SVG Version: 6.00 Build 0)  -->
<svg version="1.1" id="레이어_1" xmlns="http://www.w3.org/2000/svg" xmlns:xlink="http://www.w3.org/1999/xlink" x="0px"
	 y="0px" viewBox="0 0 170 180" style="enable-background:new 0 0 170 180;" xml:space="preserve">
<style type="text/css">
	.st0{fill:#F8C5AF;}
	.st1{fill:#F1A387;}
	.st2{fill:#1E2C5A;}
	.st3{fill:none;stroke:#1E2C5A;stroke-width:0.9683;stroke-linecap:round;stroke-linejoin:round;stroke-miterlimit:10;}
	.st4{fill:none;stroke:#1E2C5A;stroke-width:0.4841;stroke-linecap:round;stroke-linejoin:round;stroke-miterlimit:10;}
	.st5{fill:none;stroke:#1E2C5A;stroke-width:0.5156;stroke-linecap:round;stroke-linejoin:round;stroke-miterlimit:10;}
	.st6{fill:none;stroke:#1E2C5A;stroke-width:1.043;stroke-linecap:round;stroke-linejoin:round;stroke-miterlimit:10;}
	.st7{fill:#FFFFFF;}
</style>
<path class="st0" d="M106.9,113.7c0.3-0.4,0.6-0.8,1-1.1c0.1-0.1,0.9-1.2,0.3-0.3c0.4-0.5,0.8-1,1.3-1.3c0.1-0.1,0.2-0.2,0.3-0.4
	c0.4-0.5,0.9-0.9,1.3-1.3c3.9-5,7.4-10.8,8.8-15.9c3.1-11,6.3-51.3-25.4-50.6l-14.4-0.9c0,0-38.7,10.4-31.3,34.6s6.8,23.9,18.9,41.2
	c12.1,17.3,25.8,7.1,31.1,4c1.3-0.8,3-2.1,4.8-4c0.6-1,1.5-1.9,2.4-2.7C106.3,114.6,106.6,114.2,106.9,113.7z"/>
<path class="st1" d="M119.6,83.3c0,0,4.4-2.8,5.8,0.9c1.4,3.7-1,10.2-4.2,12C118,98,113,97,113,97L119.6,83.3z"/>
<path class="st1" d="M106.9,113.7c0.3-0.4,0.6-0.8,1-1.1c0.1-0.1,0.9-1.2,0.3-0.3c0.4-0.5,0.8-1,1.3-1.3c0.1-0.1,0.2-0.2,0.3-0.4
	c0.3-0.3,0.6-0.6,0.9-0.9c3.8-6,7.1-11.4,7.1-11.4l-2.6-22.9l-14.2,4.2c0,0,14.2,15,2.5,38.4c0.1-0.1,0.1-0.2,0.2-0.3
	c0.6-1,1.5-1.9,2.4-2.7C106.3,114.6,106.6,114.2,106.9,113.7z"/>
<ellipse transform="matrix(8.757536e-02 -0.9962 0.9962 8.757536e-02 -5.1571 168.1455)" class="st2" cx="89.2" cy="86.9" rx="3.5" ry="2.5"/>
<ellipse transform="matrix(0.9913 -0.1319 0.1319 0.9913 -11.0824 9.8359)" class="st2" cx="68.7" cy="88.6" rx="2.5" ry="3.9"/>
<path class="st2" d="M78.8,89.7"/>
<path class="st2" d="M77.7,91.6"/>
<path class="st0" d="M98.2,105"/>
<path class="st2" d="M118.1,97.1"/>
<line class="st3" x1="84.8" y1="78.8" x2="94" y2="78.8"/>
<line class="st3" x1="62.9" y1="80.5" x2="72.1" y2="81.6"/>
<path class="st0" d="M54.3,94.2c0,0,7.6,36.2,33.3,32.8"/>
<path class="st4" d="M121.3,86.5c0,0,2.2,2.9-1.8,6.9"/>
<path class="st4" d="M119.4,90c0,0,0.7-2,2.4-1.3"/>
<path class="st2" d="M79.3,40.6c0,0-42.5-0.5-30.5,41.9L53,91l3.1-17.9c0,0,8.7,7.1,13.6,6.1c0,0-5.8-4.9-2.2-7.2
	c0,0,0.8,7.7,11.8,6.7c0,0-2.6-2.6-1.8-5.7c0,0,3.6,10.2,24.6,8.7c0,0,13.4,5.1,13.4,9.4l4-7.2l2-1.3
	C121.6,82.5,128.6,32.3,79.3,40.6z"/>
<path class="st2" d="M79.3,42.1c-0.1,0.6,6.2-8.1,12.4-3.1"/>
<polyline class="st5" points="77.7,89.2 77.7,101.6 83,101.6 "/>
<line class="st3" x1="86.1" y1="81.3" x2="95.3" y2="80.9"/>
<path class="st6" d="M73.7,111c0,0,12.8-0.3,18.5-6"/>
<path class="st2" d="M77.3,111c0,0,7.5,5.5,9.1,3.8s4.7-8.3,4.7-8.3"/>
<path class="st7" d="M79,111.1c0,0,2.2-0.2,3.1-0.6c0,0-0.8,1.5-0.3,2.3"/>
<path class="st2" d="M66,74.7c0,0,19.6,14.2,46.1,9.4s-50.8-22-50.8-22L66,74.7z"/>
</svg>
