<?xml version="1.0" encoding="utf-8"?>
<!-- Generator: Adobe Illustrator 23.0.0, SVG Export Plug-In . SVG Version: 6.00 Build 0)  -->
<svg version="1.1" id="레이어_1" xmlns="http://www.w3.org/2000/svg" xmlns:xlink="http://www.w3.org/1999/xlink" x="0px"
	 y="0px" viewBox="0 0 400 500" style="enable-background:new 0 0 400 500;" xml:space="preserve">
<style type="text/css">
	.st0{fill:#F8C5AF;}
	.st1{fill:#F1A387;}
	.st2{fill:#1E2C5A;}
	.st3{fill:none;stroke:#1E2C5A;stroke-width:0.9022;stroke-linecap:round;stroke-linejoin:round;stroke-miterlimit:10;}
	.st4{fill:none;stroke:#1E2C5A;stroke-width:2;stroke-miterlimit:10;}
	.st5{fill:none;stroke:#1E2C5A;stroke-width:2;stroke-linecap:round;stroke-linejoin:round;stroke-miterlimit:10;}
	.st6{fill:none;stroke:#1E2C5A;stroke-width:0.8164;stroke-linecap:round;stroke-linejoin:round;stroke-miterlimit:10;}
</style>
<path class="st0" d="M199.9,111.9c0,0-80,21.4-64.8,71.5s14.1,49.4,39.1,85.1s53.3,14.7,64.2,8.2c11-6.5,37.1-35.8,43.6-58.4
	c6.5-22.7,13-106.1-52.5-104.5"/>
<path class="st1" d="M281.5,197.3c0,0,9-5.7,12,1.8c3,7.6-2,21-8.6,24.8s-17,1.8-17,1.8L281.5,197.3z"/>
<path class="st1" d="M248,269.3c0.5-0.5,1.1-0.9,1.7-1.2c0.4-0.7-0.1,0.3,1-1.1c1.2-1.6,2.4-3,4-4.2c0.3-0.4,0.6-0.7,0.9-1
	c0.7-0.7,1.4-1.4,2.2-2c0.5-0.9,1.1-1.7,1.9-2.3c9.2-14.5,18.1-29.1,18.1-29.1l-5.5-47.3l-29.3,8.7
	C242.9,189.7,272.4,220.8,248,269.3z"/>
<ellipse class="st2" cx="218.8" cy="203.4" rx="5.2" ry="8.6"/>
<ellipse class="st2" cx="176.5" cy="209" rx="5.2" ry="8.6"/>
<path class="st2" d="M197.3,210.8"/>
<path class="st2" d="M194.9,214.6"/>
<polyline class="st3" points="194.9,214.6 194.9,236.1 204.2,236.1 "/>
<path class="st0" d="M237.4,242.3"/>
<path class="st2" d="M196.1,109.1c0,0-76.6-8.5-63,110.5c0,0,0.2,4.6-0.2,11.4c0.5,9.4,0.1,18.8-0.3,28.2
	c-0.5,11.1-0.5,22.1-0.5,33.2c0,0.5,0,1,0,1.5c3.7,0.4,8.1,0.4,13.1-0.6c25.2-4.6,38.9-13.5,38.9-13.5l-30-41.8
	c0,0-17.6-36.5,6.4-62.2c24-25.7,35.5-16.4,35.5-16.4s44.9-22.1,81.8,47.3l7.6-10.7C285.6,196.1,297.8,88.2,196.1,109.1z"/>
<path class="st0" d="M152.6,234.6c5.2,13.7,3.5,47.6,52,53.8"/>
<polyline class="st2" points="267.9,202.1 275.8,214.6 280.1,200.3 "/>
<path class="st3" d="M287.1,203.4c0,0,3.3,8-4.8,14.2"/>
<path class="st3" d="M282.3,210.5c0,0,1.2-3.7,5.5-2.4"/>
<path class="st2" d="M303,225.3"/>
<path class="st2" d="M278.5,225.9"/>
<path class="st3" d="M188.4,250"/>
<path class="st2" d="M133.2,219.6c0,0,1.1,20.3-8.9,35.9s0,25.2,0,25.2s-1.3,13-9.5,12c-8.3-1,17.5,1.3,17.5,1.3"/>
<g>
	<g>
		<path class="st2" d="M131.8,242.8c0,2.2,0,4.4,0,6.6c1.7,0,3.3,0,5,0c-0.2-3.6,1.2-7,1.2-10.5c0-2.4-3.5-3.5-4.7-1.3
			c-1.1,2.2-2.2,4.4-3.3,6.6c1.5,0.6,3,1.3,4.6,1.9c0.7-1.8,1.6-3.4,2.6-5.1c-1.6-0.4-3.1-0.8-4.7-1.3c0.2,6.3-1.1,12.3-2.5,18.4
			c-0.5,2.2,2.5,4.5,4.2,2.4c2.4-3,4.6-6.1,6.6-9.4c-1.5-0.6-3-1.3-4.6-1.9c-0.7,1.8-1.6,3.3-2.7,4.8c-1.9,2.6,2.4,5.1,4.3,2.5
			c1.4-1.9,2.4-3.8,3.2-6c1-2.7-3.2-4.3-4.6-1.9c-1.7,3-3.6,5.8-5.8,8.4c1.4,0.8,2.8,1.6,4.2,2.4c1.5-6.5,3-13,2.7-19.7
			c-0.1-2.5-3.3-3.4-4.7-1.3c-1.2,2-2.2,4.1-3.1,6.3c-1,2.6,3.3,4.4,4.6,1.9c1.1-2.2,2.2-4.4,3.3-6.6c-1.6-0.4-3.1-0.8-4.7-1.3
			c0,3.6-1.4,6.9-1.2,10.5c0.2,3.2,5,3.3,5,0c0-2.2,0-4.4,0-6.6C136.8,239.6,131.8,239.6,131.8,242.8L131.8,242.8z"/>
	</g>
</g>
<path class="st2" d="M284.6,223.2c0,0-7.8,22.3-0.1,29s11.8,19,9.3,23.1c-2.5,4.1-7,19.6,0.6,19.4s-70.4-6.7-70.4-6.7l35.6-33.7
	c0,0,14.5-19.7,16.6-28.1"/>
<path class="st2" d="M196.1,159.5c0,0,31.8,38.2,77.9,46.4l3.6-23.2L202,133.9L196.1,159.5z"/>
<g>
	<path class="st4" d="M208.2,159.7c0,0-2.9,29.2,17.6,34.3"/>
	<path class="st4" d="M197.3,159.7c0,0-11.7,30.6,4.2,37.7"/>
	<path class="st4" d="M184.6,156.8c0,0-19.3,30.9-3.1,40.2"/>
	<path class="st4" d="M174.8,159.2c0,0-24.4,28.3-11.4,35.3"/>
</g>
<path class="st5" d="M209.6,185.2"/>
<path class="st5" d="M208.1,181c0,0,7.8-5.1,16.2,0"/>
<path class="st5" d="M166.7,182.7c0,0,7.1-6,16-2"/>
<path class="st6" d="M188.8,252.1c0,0,17.5,20.9,30.8-2.1"/>
</svg>
